<?xml version="1.0" encoding="UTF-8" standalone="no"?>
<svg width="25px" height="26px" viewBox="0 0 25 26" version="1.1" xmlns="http://www.w3.org/2000/svg" xmlns:xlink="http://www.w3.org/1999/xlink">
    <!-- Generator: Sketch 3.8.3 (29802) - http://www.bohemiancoding.com/sketch -->
    <title>Oval 1</title>
    <desc>Created with Sketch.</desc>
    <defs></defs>
    <g id="Page-1" stroke="none" stroke-width="1" fill="none" fill-rule="evenodd">
        <path d="M24.7448985,15.5720649 C24.5800659,16.4063099 24.3359238,17.2253341 24.0160928,18.0082854 C23.7036008,18.7773859 23.3160069,19.5185311 22.8630965,20.2097017 C22.4169379,20.8965091 21.9029675,21.5408508 21.3383584,22.1282165 C20.7725261,22.7130454 20.1499394,23.2453122 19.4888967,23.7106081 C18.821151,24.1776797 18.1064362,24.5796069 17.365399,24.9056337 C16.6103688,25.2360237 15.8198672,25.4891942 15.0172318,25.6600716 C14.1932646,25.8360732 13.3460085,25.9259259 12.4994373,25.9259259 C11.6522302,25.9259259 10.805023,25.8360732 9.98222998,25.6600716 C9.17837146,25.4891942 8.38791874,25.2360237 7.63347574,24.9056337 C6.89248747,24.5796069 6.17708763,24.1776797 5.50934198,23.7106081 C4.84829923,23.2453629 4.22571251,22.7130454 3.66110342,22.1282165 C3.09590722,21.5408508 2.58193681,20.8965091 2.13514217,20.2097017 C1.68467806,19.5185311 1.29644815,18.7773351 0.982732943,18.0082854 C0.662853027,17.2253341 0.418123854,16.4062591 0.252704155,15.5720649 C0.0854741836,14.7175257 0,13.8408659 0,12.9629883 C0,12.0844512 0.0854252573,11.2059141 0.252753081,10.3532522 C0.41817278,9.51900725 0.662901954,8.69871459 0.982781869,7.91703169 C1.29649708,7.14737313 1.68472698,6.40556839 2.1351911,5.71434701 C2.58198574,5.02698154 3.09595615,4.38385748 3.66115235,3.79583225 C4.22576144,3.21095262 4.84834815,2.67995417 5.50939091,2.21536857 C6.17713656,1.74631825 6.8925364,1.34444181 7.63352467,1.01780623 C8.38796766,0.686705911 9.17837146,0.432926601 9.98227891,0.263317597 C10.8050719,0.0886350371 11.6522791,0 12.4994863,0 C13.3460574,0 14.1932646,0.0886350371 15.0172808,0.263317597 C15.8199161,0.432977336 16.6103688,0.686756647 17.3654479,1.01780623 C18.1064362,1.34439108 18.8211999,1.74631825 19.4889456,2.21536857 C20.1499884,2.67995417 20.772624,3.21095262 21.3384073,3.79583225 C21.9030164,4.38385748 22.4169868,5.02698154 22.8631454,5.71434701 C23.3160069,6.40556839 23.7036008,7.14742386 24.0160928,7.91703169 C24.3359238,8.69871459 24.5800659,9.51900725 24.7448985,10.3532522 C24.9139387,11.2059141 25,12.0844512 25,12.9629883 C25,13.8408659 24.9139387,14.7175257 24.7448985,15.5720649 Z M2.05328853,10.6805473 C2.3347124,10.6830841 6.7831862,10.7413285 11.9085549,9.32915475 C10.0609523,5.92510256 8.08697328,3.14712728 7.94474463,2.95022254 C4.96787501,4.40795687 2.74608443,7.25244649 2.05328853,10.6805473 Z M1.83297356,12.609818 C1.82989121,12.7287929 1.82441147,12.8439627 1.82441147,12.9629883 C1.82441147,15.8068184 2.85900625,18.3994059 4.55953641,20.3597268 C4.55586694,20.3539937 7.47720525,14.9795749 13.2379793,13.0478182 C13.3771256,12.9997209 13.5187671,12.9566464 13.6591366,12.914891 C13.3912164,12.28577 13.0987841,11.6553298 12.7929949,11.0337684 C7.29652056,12.7401577 2.02217143,12.6173776 1.83297356,12.609818 Z M12.4994373,1.89385728 C11.6320725,1.89385728 10.7903451,2.00273581 9.98404025,2.2040038 C10.1439313,2.42683442 12.1490764,5.18522577 13.974711,8.66137321 C18.0026635,7.09547064 19.5230961,4.69527239 19.5493695,4.65478541 C17.6699649,2.93627026 15.202222,1.89385728 12.4994373,1.89385728 Z M14.3159228,14.7732334 C8.01748275,17.0501618 5.96064176,21.6388259 5.93838778,21.6889168 C7.75065414,23.1503859 10.0237195,24.0321194 12.4994373,24.0321194 C13.9777444,24.0321194 15.3858912,23.7199942 16.6670744,23.1548507 C16.5089936,22.1876785 15.8888532,18.7975786 14.3867191,14.7491847 C14.3629409,14.7573532 14.3391627,14.7644054 14.3159228,14.7732334 Z M23.0388886,14.717475 C22.8191607,14.6440606 19.8325548,13.6635958 16.3869226,14.2364511 C17.7871434,18.2266513 18.356058,21.4762644 18.4647232,22.1433864 C20.8616698,20.4660685 22.5640102,17.8026034 23.0388886,14.717475 Z M15.5055649,11.9160599 C15.5843362,12.1097683 15.6612482,12.2996715 15.7363011,12.489524 C19.4034714,12.0109861 23.0163335,12.8161089 23.1707938,12.8489855 C23.1463796,10.2247897 22.2411458,7.81637232 20.7433172,5.93083568 C20.7231595,5.96051599 19.0110339,8.52590924 14.7963297,10.310888 C15.0440923,10.8387916 15.2840267,11.3760812 15.5055649,11.9160599 Z" id="Oval-1" fill="#000000"></path>
    </g>
</svg>