<?xml version="1.0" encoding="utf-8"?>
<!-- Generator: Adobe Illustrator 17.1.0, SVG Export Plug-In . SVG Version: 6.00 Build 0)  -->
<!DOCTYPE svg PUBLIC "-//W3C//DTD SVG 1.1//EN" "http://www.w3.org/Graphics/SVG/1.1/DTD/svg11.dtd">
<svg version="1.1" id="Layer_1" xmlns="http://www.w3.org/2000/svg" xmlns:xlink="http://www.w3.org/1999/xlink" x="0px" y="0px"
	 viewBox="0 0 124 52.081" enable-background="new 0 0 124 52.081" xml:space="preserve">
<g>
	<g>
		<path fill="#A2B73A" d="M112.953,34.934l-4.853,0.004c0,0.004-3.787,0.004-3.787,0.004l-0.002,4.121l3.761,0.004h4.657
			c4.741,0.055,6.247,1.796,6.247,4.361c0,2.79-2.845,4.797-8.309,4.797c-2.39,0.034-4.772-0.491-6.356-1.487v3.805
			c2.011,0.98,4.337,1.553,6.787,1.538c7.653-0.045,12.45-3.536,12.45-9.057C123.548,38.007,120.258,35.048,112.953,34.934z"/>
		<path fill="#A2B73A" d="M120.116,7.041c-3.269,0-5.595,2.104-6.206,5.487c-1.109-0.277-2.331-0.443-3.603-0.443
			c-5.935,0-10.59,3.381-10.59,9.369c0,0.032,0.003,0.063,0.003,0.096c0.052,5.926,4.683,9.272,10.585,9.274c0,0,0,0,0.002,0l0,0
			l0,0l0,0c5.931,0,10.589-3.381,10.589-9.37c0-3.049-1.219-5.375-3.161-6.984c0.056-2.606,1.219-3.658,2.937-3.658
			c0.498,0,0.944,0.109,1.551,0.109c1.167,0,1.777-0.83,1.777-1.827C124,7.927,122.89,7.041,120.116,7.041z M110.307,27.274
			c-3.66,0-6.155-1.939-6.155-5.821c0-3.88,2.495-5.821,6.155-5.821c3.658,0,6.153,1.94,6.153,5.821
			C116.46,25.336,113.965,27.274,110.307,27.274z"/>
	</g>
	<path fill="#60B046" d="M87.719,12.085c-3.356,0-6.131,1.062-9.2,2.814v3.574c2.636-1.173,5.173-2.119,7.816-2.119
		c3.712,0,5.321,2,5.321,5.434v16.242c0,1.386,0.776,2.219,2.273,2.219c1.496,0,2.271-0.833,2.271-2.219V21.51
		C96.2,16.132,93.264,12.085,87.719,12.085z"/>
	<path fill="#26B24C" d="M72.163,5.876c-1.611,0-2.942-1.332-2.942-2.937C69.221,1.332,70.551,0,72.163,0
		c1.607,0,2.936,1.332,2.936,2.939C75.099,4.544,73.77,5.876,72.163,5.876z M72.163,40.247c-1.5,0-2.277-0.833-2.277-2.219V14.301
		c0-1.383,0.776-2.216,2.277-2.216c1.495,0,2.271,0.833,2.271,2.216v23.728C74.434,39.414,73.658,40.247,72.163,40.247z"/>
	<path fill="#00A77E" d="M61.507,40.247c-1.496,0-2.273-0.833-2.273-2.219V2.216C59.234,0.833,60.011,0,61.507,0
		c1.498,0,2.276,0.833,2.276,2.216v35.813C63.783,39.414,63.005,40.247,61.507,40.247z"/>
	<path fill="#009C9E" d="M51.831,40.247c-0.664,0-1.441-0.277-1.94-1.052l-7.818-11.92l-5.431,5.877v4.877
		c0,1.386-0.777,2.219-2.275,2.219c-1.497,0-2.273-0.833-2.273-2.219V2.216C32.093,0.833,32.869,0,34.366,0
		c1.498,0,2.275,0.833,2.275,2.216v25.059L49.89,12.752c0.444-0.501,0.941-0.667,1.553-0.667c1.217,0,2.051,0.944,2.051,2.052
		c0,0.441-0.168,0.942-0.555,1.387l-7.762,8.37l8.371,12.75c0.277,0.444,0.444,0.942,0.444,1.385
		C53.993,39.306,52.994,40.247,51.831,40.247z"/>
	<path fill="#0091B2" d="M18.353,12.085c-3.354,0-6.132,1.062-9.2,2.814v3.574c2.634-1.173,5.173-2.119,7.815-2.119
		c3.715,0,5.322,2,5.322,5.434v16.242c0,1.386,0.776,2.219,2.271,2.219c1.498,0,2.277-0.833,2.277-2.219V21.51
		C26.838,16.132,23.9,12.085,18.353,12.085z"/>
	<path fill="#037DB7" d="M2.939,5.876C1.33,5.876,0,4.544,0,2.941C0,1.332,1.33,0,2.939,0c1.606,0,2.936,1.332,2.936,2.941
		C5.875,4.544,4.545,5.876,2.939,5.876z M2.939,40.247c-1.498,0-2.275-0.833-2.275-2.219V14.301c0-1.383,0.776-2.216,2.275-2.216
		c1.496,0,2.271,0.833,2.271,2.216v23.728C5.21,39.414,4.435,40.247,2.939,40.247z"/>
</g>
</svg>
