<?xml version="1.0" encoding="UTF-8" standalone="no"?>
<svg width="21px" height="22px" viewBox="0 0 21 22" version="1.1" xmlns="http://www.w3.org/2000/svg" xmlns:xlink="http://www.w3.org/1999/xlink">
    <!-- Generator: Sketch 3.8.3 (29802) - http://www.bohemiancoding.com/sketch -->
    <title>Oval 1</title>
    <desc>Created with Sketch.</desc>
    <defs></defs>
    <g id="Page-1" stroke="none" stroke-width="1" fill="none" fill-rule="evenodd">
        <path d="M20.9535259,20.0546811 C20.9715159,19.9571959 20.9847085,19.8581434 21,19.7603447 L21,2.19420072 C20.9853082,2.09796934 20.9727152,2.00142451 20.9547252,1.90550659 C20.7709276,0.921564301 19.9946601,0.157982452 19.0414912,0.0216285499 C19.0019132,0.0162997768 18.9632348,0.00720951664 18.9242565,0 L2.07574351,0 C1.97410014,0.019120892 1.87185711,0.0335399252 1.7717129,0.0573626759 C0.841331258,0.278976948 0.152914805,1.0623066 0.0203886406,2.04781618 C0.0149916475,2.08887908 0.00689615785,2.12962852 0,2.17069142 L0,19.7847944 C0.0191893088,19.8963852 0.0344807893,20.0089163 0.0584674253,20.1198802 C0.264152829,21.0709095 1.04072017,21.8081609 1.96450549,21.93229 C2.0091806,21.9379322 2.05415554,21.9470225 2.09883065,21.9545455 L18.9011693,21.9545455 C19.0103085,21.9351111 19.1197476,21.9191248 19.2276874,21.8946751 C20.0852097,21.7044066 20.7859193,20.9564976 20.9535259,20.0546811 Z M2.2721341,18.7080688 C2.2721341,19.1754335 2.65921844,19.5772857 3.10626936,19.5772857 C8.03432373,19.5775992 12.9620783,19.5775992 17.8901326,19.5772857 C18.3413812,19.5772857 18.7263667,19.1760604 18.7263667,18.7052477 C18.7266666,15.4600248 18.7263667,12.2151154 18.7263667,8.97020599 L18.7263667,8.90281268 L16.7216836,8.90281268 C17.0047259,9.84851319 17.0916775,10.8105135 16.9807393,11.7910077 C16.8692014,12.7718155 16.5669698,13.684603 16.0746441,14.5274895 C15.5820186,15.3713164 14.9433744,16.070326 14.1614101,16.6267127 C12.1345393,18.0698698 9.46602607,18.19682 7.31532432,16.9348411 C6.22813004,16.2975826 5.37450563,15.4089313 4.77933723,14.2638719 C3.89153186,12.5552165 3.74971088,10.7619276 4.27052071,8.90124539 C3.60549123,8.90187231 2.94316024,8.90187231 2.27183426,8.90187231 L2.27183426,8.96111573 C2.27183426,12.2101001 2.27153443,15.4590844 2.2721341,18.7080688 Z M10.4024044,15.4236638 C12.7800797,15.4769515 14.7032082,13.4908864 14.7532803,11.0753848 C14.8045517,8.58434012 12.8826225,6.52680676 10.5001499,6.52837405 C8.17104756,6.52680676 6.27760248,8.48591454 6.24492069,10.9098794 C6.2113394,13.3990434 8.11737746,15.3722568 10.4024044,15.4236638 Z M18.7260669,4.75514641 C18.7263667,4.06209244 18.7263667,3.36872501 18.7260669,2.67567105 C18.7260669,2.17852785 18.3497766,1.78294481 17.8748412,1.78263135 C17.2137095,1.7823179 16.5525778,1.78200444 15.8911464,1.78263135 C15.4174103,1.78325827 15.0399206,2.17978168 15.0396208,2.67692487 C15.0393209,3.36402316 15.037522,4.05112144 15.0420194,4.73853318 C15.0426191,4.8410337 15.0612088,4.94760916 15.0923914,5.0447809 C15.2111252,5.41058551 15.5316467,5.6350209 15.924128,5.63690164 C16.2431502,5.63752856 16.5621725,5.63658818 16.8814946,5.63658818 C17.2269022,5.63251324 17.573509,5.6394093 17.9192164,5.6306325 C18.3638687,5.61903458 18.7260669,5.22063042 18.7260669,4.75514641 Z" id="Oval-1" fill="#000000"></path>
    </g>
</svg>