<?xml version="1.0" encoding="UTF-8" standalone="no"?>
<svg width="23px" height="23px" viewBox="0 0 23 23" version="1.1" xmlns="http://www.w3.org/2000/svg" xmlns:xlink="http://www.w3.org/1999/xlink">
    <!-- Generator: Sketch 3.8.3 (29802) - http://www.bohemiancoding.com/sketch -->
    <title>Oval 1 Copy</title>
    <desc>Created with Sketch.</desc>
    <defs></defs>
    <g id="Page-1" stroke="none" stroke-width="1" fill="none" fill-rule="evenodd">
        <path d="M0,7.44159551 L0,22.6426463 L4.92417983,22.6426463 L4.92417983,7.44159551 L0,7.44159551 Z M2.7858188,0 C1.10128789,0 0,1.13521842 0,2.62567182 C0,4.08525277 1.068738,5.25315966 2.72189906,5.25315966 L2.75336724,5.25315966 C4.4703497,5.25315966 5.53967773,4.08525277 5.53967773,2.62567182 C5.50771786,1.13521842 4.4703497,0 2.7858188,0 Z M17.3304177,7.44159551 C14.7160021,7.44159551 13.5454842,8.91701625 12.8919295,9.95205053 L12.8919295,7.79894919 L7.96715966,7.79894919 C8.03206278,9.22533721 7.96715966,23 7.96715966,23 L12.8919295,23 L12.8919295,14.5104791 C12.8919295,14.0561698 12.9238894,13.6029703 13.054089,13.2776997 C13.4099744,12.37009 14.22028,11.4303971 15.5806887,11.4303971 C17.3632626,11.4303971 18.0758202,12.8242984 18.0758202,14.8670257 L18.0758202,22.9995964 L22.9998033,22.9995964 L23,14.2837785 C23,9.61467314 20.570755,7.44159551 17.3304177,7.44159551 Z" id="Oval-1-Copy" fill="#000000"></path>
    </g>
</svg>