<?xml version="1.0" encoding="UTF-8" standalone="no"?>
<svg width="25px" height="22px" viewBox="0 0 25 22" version="1.1" xmlns="http://www.w3.org/2000/svg" xmlns:xlink="http://www.w3.org/1999/xlink">
    <!-- Generator: Sketch 3.8.3 (29802) - http://www.bohemiancoding.com/sketch -->
    <title>Oval 1 Copy</title>
    <desc>Created with Sketch.</desc>
    <defs></defs>
    <g id="Page-1" stroke="none" stroke-width="1" fill="none" fill-rule="evenodd">
        <path d="M12.1389266,5.74351986 L12.1931182,6.67738759 L11.2899242,6.56303647 C8.00229832,6.12469036 5.13014159,4.63812541 2.69151794,2.14145875 L1.49930192,0.90265461 L1.19221603,1.81746377 C0.541916367,3.85672594 0.957385548,6.01033924 2.31217647,7.45878706 C3.03473162,8.25924509 2.87215673,8.37359631 1.6257491,7.89713316 C1.19221603,7.74466491 0.812874551,7.63031379 0.776746759,7.68748939 C0.650299658,7.82089908 1.08383273,9.55522475 1.42704642,10.2413317 C1.89670729,11.194258 2.85409283,12.1281256 3.90179778,12.6808228 L4.78692783,13.1191689 L3.73922288,13.1382274 C2.72764565,13.1382274 2.69151794,13.157286 2.79990123,13.5575149 C3.16117881,14.7963191 4.58822523,16.1113573 6.17784654,16.683113 L7.29780698,17.0833421 L6.32235753,17.6932148 C4.87724722,18.5699069 3.17924262,19.0654286 1.48123802,19.1035457 C0.668363468,19.1226041 0,19.1988382 0,19.2560138 C0,19.446599 2.20379318,20.5138764 3.4863286,20.933164 C7.33393477,22.1719681 11.9040961,21.6383294 15.3362331,19.5228332 C17.7748567,18.0172097 20.2134804,15.0250214 21.3515047,12.1281256 C21.9656766,10.5843851 22.5798485,7.76372347 22.5798485,6.41056821 C22.5798485,5.5338761 22.6340402,5.41952497 23.6456173,4.37130613 C24.2417254,3.7614333 24.8017056,3.09438495 24.9100888,2.90379965 C25.0907276,2.54168772 25.0726638,2.54168772 24.151406,2.86568261 C22.6159763,3.4374384 22.3992097,3.36120432 23.1578926,2.50357068 C23.7178729,1.89369785 24.3862364,0.788303488 24.3862364,0.464308507 C24.3862364,0.40713299 24.1152782,0.502425637 23.8081923,0.673952276 C23.4830424,0.864537569 22.7604873,1.15041542 22.2185709,1.32194215 L21.2431214,1.64593704 L20.3579914,1.01700573 C19.8702666,0.673952276 19.1838393,0.292781868 18.8225617,0.178430656 C17.9013038,-0.0883886292 16.4923213,-0.0502715885 15.6613829,0.254664738 C13.403398,1.11229838 11.9763516,3.32308728 12.1389266,5.74351986 C12.1389266,5.74351986 11.9763516,3.32308728 12.1389266,5.74351986 L12.1389266,5.74351986 L12.1389266,5.74351986 Z" id="Oval-1-Copy" fill="#000000"></path>
    </g>
</svg>